PathFileType  4	(X/Y/Z) C:\Users\MoBL3\Box\OA_GRF_OpenCap\GRF_Tracking_12_18_24\Subject3_walking1
DataRate	CameraRate	NumFrames	NumMarkers	Units	OrigDataRate	OrigDataStartFrame	OrigNumFrames
100.0		100.0		4		177		 mm	100.0	50	132
Frame#	Time	r_knee			r_shank_antsup			r_ankle			r_calc			r_5meta			r_toe			L_knee			L_shank_antsup			L_ankle			L_calc			L_5meta			L_toe			r_sh2			r_sh3			r_sh4			L_sh2			L_sh3			r_thigh1			r_thigh2			r_thigh3			r_thigh4			r_thigh5			L_thigh1			L_thigh2			L_thigh3			L_thigh4			r.ASIS			r.PSIS			L.ASIS			L.PSIS			C7			R_Shoulder			L_Shoulder			R_Sternum			L_Sternum			R_humerus			R_elbow_med			R_elbow_lat			R_forearm			R_wrist_radius			R_wrist_ulna			L_humerus			L_elbow_med			L_elbow_lat			L_forearm			L_wrist_radius			L_wrist_ulna			R_HJC			L_HJC			R_HJC_reg			L_HJC_reg			Neck			RShoulder			RElbow			RWrist			LShoulder			LElbow			LWrist			midHip			RHip			RKnee			RAnkle			LHip			LKnee			LAnkle			LBigToe			LSmallToe			LHeel			RBigToe			RSmallToe			RHeel			C7_study			r_shoulder_study			L_shoulder_study			r.ASIS_study			L.ASIS_study			r.PSIS_study			L.PSIS_study			r_knee_study			L_knee_study			r_mknee_study			L_mknee_study			r_ankle_study			L_ankle_study			r_mankle_study			L_mankle_study			r_calc_study			L_calc_study			r_toe_study			L_toe_study			r_5meta_study			L_5meta_study			r_thigh1_study			r_thigh2_study			r_thigh3_study			L_thigh1_study			L_thigh2_study			L_thigh3_study			r_sh1_study			r_sh2_study			r_sh3_study			L_sh1_study			L_sh2_study			L_sh3_study			RHJC_study			LHJC_study			r_lelbow_study			L_lelbow_study			r_melbow_study			L_melbow_study			r_lwrist_study			L_lwrist_study			r_mwrist_study			L_mwrist_study			Neck_offsetRemoved			RShoulder_offsetRemoved			RElbow_offsetRemoved			RWrist_offsetRemoved			LShoulder_offsetRemoved			LElbow_offsetRemoved			LWrist_offsetRemoved			midHip_offsetRemoved			RHip_offsetRemoved			RKnee_offsetRemoved			RAnkle_offsetRemoved			LHip_offsetRemoved			LKnee_offsetRemoved			LAnkle_offsetRemoved			LBigToe_offsetRemoved			LSmallToe_offsetRemoved			LHeel_offsetRemoved			RBigToe_offsetRemoved			RSmallToe_offsetRemoved			RHeel_offsetRemoved			C7_study_offsetRemoved			r_shoulder_study_offsetRemoved			L_shoulder_study_offsetRemoved			r.ASIS_study_offsetRemoved			L.ASIS_study_offsetRemoved			r.PSIS_study_offsetRemoved			L.PSIS_study_offsetRemoved			r_knee_study_offsetRemoved			L_knee_study_offsetRemoved			r_mknee_study_offsetRemoved			L_mknee_study_offsetRemoved			r_ankle_study_offsetRemoved			L_ankle_study_offsetRemoved			r_mankle_study_offsetRemoved			L_mankle_study_offsetRemoved			r_calc_study_offsetRemoved			L_calc_study_offsetRemoved			r_toe_study_offsetRemoved			L_toe_study_offsetRemoved			r_5meta_study_offsetRemoved			L_5meta_study_offsetRemoved			r_thigh1_study_offsetRemoved			r_thigh2_study_offsetRemoved			r_thigh3_study_offsetRemoved			L_thigh1_study_offsetRemoved			L_thigh2_study_offsetRemoved			L_thigh3_study_offsetRemoved			r_sh1_study_offsetRemoved			r_sh2_study_offsetRemoved			r_sh3_study_offsetRemoved			L_sh1_study_offsetRemoved			L_sh2_study_offsetRemoved			L_sh3_study_offsetRemoved			RHJC_study_offsetRemoved			LHJC_study_offsetRemoved			r_lelbow_study_offsetRemoved			L_lelbow_study_offsetRemoved			r_melbow_study_offsetRemoved			L_melbow_study_offsetRemoved			r_lwrist_study_offsetRemoved			L_lwrist_study_offsetRemoved			r_mwrist_study_offsetRemoved			L_mwrist_study_offsetRemoved			
		X1	Y1	Z1	X2	Y2	Z2	X3	Y3	Z3	X4	Y4	Z4	X5	Y5	Z5	X6	Y6	Z6	X7	Y7	Z7	X8	Y8	Z8	X9	Y9	Z9	X10	Y10	Z10	X11	Y11	Z11	X12	Y12	Z12	X13	Y13	Z13	X14	Y14	Z14	X15	Y15	Z15	X16	Y16	Z16	X17	Y17	Z17	X18	Y18	Z18	X19	Y19	Z19	X20	Y20	Z20	X21	Y21	Z21	X22	Y22	Z22	X23	Y23	Z23	X24	Y24	Z24	X25	Y25	Z25	X26	Y26	Z26	X27	Y27	Z27	X28	Y28	Z28	X29	Y29	Z29	X30	Y30	Z30	X31	Y31	Z31	X32	Y32	Z32	X33	Y33	Z33	X34	Y34	Z34	X35	Y35	Z35	X36	Y36	Z36	X37	Y37	Z37	X38	Y38	Z38	X39	Y39	Z39	X40	Y40	Z40	X41	Y41	Z41	X42	Y42	Z42	X43	Y43	Z43	X44	Y44	Z44	X45	Y45	Z45	X46	Y46	Z46	X47	Y47	Z47	X48	Y48	Z48	X49	Y49	Z49	X50	Y50	Z50	X51	Y51	Z51	X52	Y52	Z52	X53	Y53	Z53	X54	Y54	Z54	X55	Y55	Z55	X56	Y56	Z56	X57	Y57	Z57	X58	Y58	Z58	X59	Y59	Z59	X60	Y60	Z60	X61	Y61	Z61	X62	Y62	Z62	X63	Y63	Z63	X64	Y64	Z64	X65	Y65	Z65	X66	Y66	Z66	X67	Y67	Z67	X68	Y68	Z68	X69	Y69	Z69	X70	Y70	Z70	X71	Y71	Z71	X72	Y72	Z72	X73	Y73	Z73	X74	Y74	Z74	X75	Y75	Z75	X76	Y76	Z76	X77	Y77	Z77	X78	Y78	Z78	X79	Y79	Z79	X80	Y80	Z80	X81	Y81	Z81	X82	Y82	Z82	X83	Y83	Z83	X84	Y84	Z84	X85	Y85	Z85	X86	Y86	Z86	X87	Y87	Z87	X88	Y88	Z88	X89	Y89	Z89	X90	Y90	Z90	X91	Y91	Z91	X92	Y92	Z92	X93	Y93	Z93	X94	Y94	Z94	X95	Y95	Z95	X96	Y96	Z96	X97	Y97	Z97	X98	Y98	Z98	X99	Y99	Z99	X100	Y100	Z100	X101	Y101	Z101	X102	Y102	Z102	X103	Y103	Z103	X104	Y104	Z104	X105	Y105	Z105	X106	Y106	Z106	X107	Y107	Z107	X108	Y108	Z108	X109	Y109	Z109	X110	Y110	Z110	X111	Y111	Z111	X112	Y112	Z112	X113	Y113	Z113	X114	Y114	Z114	X115	Y115	Z115	X116	Y116	Z116	X117	Y117	Z117	X118	Y118	Z118	X119	Y119	Z119	X120	Y120	Z120	X121	Y121	Z121	X122	Y122	Z122	X123	Y123	Z123	X124	Y124	Z124	X125	Y125	Z125	X126	Y126	Z126	X127	Y127	Z127	X128	Y128	Z128	X129	Y129	Z129	X130	Y130	Z130	X131	Y131	Z131	X132	Y132	Z132	X133	Y133	Z133	X134	Y134	Z134	X135	Y135	Z135	X136	Y136	Z136	X137	Y137	Z137	X138	Y138	Z138	X139	Y139	Z139	X140	Y140	Z140	X141	Y141	Z141	X142	Y142	Z142	X143	Y143	Z143	X144	Y144	Z144	X145	Y145	Z145	X146	Y146	Z146	X147	Y147	Z147	X148	Y148	Z148	X149	Y149	Z149	X150	Y150	Z150	X151	Y151	Z151	X152	Y152	Z152	X153	Y153	Z153	X154	Y154	Z154	X155	Y155	Z155	X156	Y156	Z156	X157	Y157	Z157	X158	Y158	Z158	X159	Y159	Z159	X160	Y160	Z160	X161	Y161	Z161	X162	Y162	Z162	X163	Y163	Z163	X164	Y164	Z164	X165	Y165	Z165	X166	Y166	Z166	X167	Y167	Z167	X168	Y168	Z168	X169	Y169	Z169	X170	Y170	Z170	X171	Y171	Z171	X172	Y172	Z172	X173	Y173	Z173	X174	Y174	Z174	X175	Y175	Z175	X176	Y176	Z176	X177	Y177	Z177	

50	0.49000	304.710	449.374	-117.560	308.656	325.344	-147.682	170.136	86.793	-202.780	119.613	55.949	-260.771	274.703	24.876	-172.411	315.973	41.331	-212.859	624.335	471.796	-394.515	696.337	397.102	-345.674	726.306	97.009	-369.304	692.194	45.094	-323.285	859.315	88.735	-370.916	881.141	127.757	-319.634	273.757	224.461	-175.918	253.040	331.237	-97.374	201.677	237.215	-133.842	646.040	400.192	-418.642	677.959	283.428	-429.656	469.358	727.601	-93.766	449.417	618.196	-103.438	397.567	599.759	-65.635	364.646	737.184	-47.762	346.895	624.594	-59.485	546.406	755.023	-410.311	618.890	639.490	-402.255	452.529	702.694	-443.634	527.807	583.765	-430.590	503.866	898.905	-117.316	323.884	946.517	-197.302	523.926	904.843	-357.320	330.085	940.404	-314.264	356.236	1398.508	-228.186	416.494	1362.592	-80.775	411.036	1374.493	-390.442	485.123	1346.799	-215.395	485.608	1346.029	-259.147	459.228	1244.184	-15.289	432.300	1031.372	-46.284	461.641	1051.266	20.697	570.165	983.693	27.268	655.012	923.735	18.725	633.987	896.490	36.340	399.408	1225.556	-459.021	310.075	1051.799	-385.027	305.438	1062.771	-458.736	316.353	971.508	-498.658	305.825	839.747	-506.701	274.710	846.966	-514.730	415.638	828.788	-149.259	435.850	827.133	-337.542	432.911	841.396	-151.409	441.319	833.107	-309.970	426.889	1287.783	-235.386	438.365	1283.151	-78.613	471.385	1041.632	-15.623	636.891	883.597	6.448	426.395	1292.767	-392.675	333.172	1034.282	-436.110	263.558	810.100	-478.826	440.942	855.421	-246.231	434.153	852.261	-141.424	301.142	426.695	-178.072	191.779	72.426	-242.435	452.871	858.974	-350.597	610.640	480.370	-329.320	726.697	91.442	-320.428	879.739	79.501	-308.336	871.660	78.766	-309.263	708.913	48.517	-314.555	328.104	11.539	-204.283	320.408	15.242	-205.342	164.913	45.723	-260.646	360.970	1344.641	-238.168	437.698	1321.301	-105.460	436.710	1332.558	-378.842	479.075	938.932	-100.648	501.826	917.786	-394.552	323.788	954.444	-206.516	333.222	944.675	-322.129	330.669	449.188	-134.984	620.283	474.320	-391.371	334.857	462.797	-248.286	630.640	484.570	-276.196	175.764	67.174	-190.637	713.657	75.953	-374.565	205.898	72.642	-267.471	736.172	89.151	-298.754	111.973	52.421	-247.958	671.281	23.864	-325.727	306.354	16.746	-214.277	854.578	83.170	-340.239	256.053	14.806	-174.908	812.442	67.171	-387.559	460.594	688.758	-95.572	405.080	594.756	-92.778	353.535	720.058	-68.092	567.469	752.740	-420.577	582.519	638.317	-427.450	460.124	703.934	-435.297	280.689	335.702	-146.878	263.658	213.444	-150.976	204.776	241.966	-152.011	651.662	355.580	-392.496	707.634	243.122	-401.143	641.265	233.344	-398.549	402.374	861.895	-157.745	417.675	851.660	-338.480	474.957	1052.072	22.931	334.347	1066.122	-477.857	453.121	1025.426	-57.191	336.821	1047.543	-399.145	654.836	900.540	-11.437	320.460	822.227	-483.535	607.429	861.234	20.166	251.859	835.880	-487.832	430.771	1300.864	-238.977	442.247	1296.232	-82.204	475.267	1054.713	-19.214	640.773	896.677	2.857	430.277	1305.847	-396.266	337.054	1047.363	-439.701	267.440	823.181	-482.417	444.824	868.502	-249.822	438.035	865.341	-145.015	305.024	439.775	-181.663	195.661	85.507	-246.026	456.753	872.054	-354.188	614.522	493.451	-332.911	730.579	104.523	-324.019	883.622	92.581	-311.927	875.542	91.847	-312.854	712.795	61.597	-318.146	331.986	24.620	-207.874	324.290	28.323	-208.933	168.796	58.803	-264.237	364.852	1357.721	-241.759	441.580	1334.382	-109.051	440.592	1345.638	-382.433	482.957	952.013	-104.239	505.708	930.867	-398.143	327.670	967.525	-210.107	337.104	957.756	-325.720	334.551	462.269	-138.575	624.165	487.400	-394.962	338.739	475.878	-251.877	634.522	497.651	-279.787	179.646	80.255	-194.228	717.539	89.034	-378.156	209.780	85.723	-271.062	740.054	102.232	-302.345	115.855	65.501	-251.549	675.163	36.945	-329.318	310.236	29.827	-217.868	858.460	96.251	-343.830	259.935	27.887	-178.499	816.324	80.252	-391.151	464.476	701.839	-99.163	408.962	607.836	-96.369	357.417	733.139	-71.683	571.352	765.821	-424.168	586.401	651.398	-431.041	464.006	717.015	-438.888	284.571	348.783	-150.469	267.540	226.525	-154.567	208.659	255.046	-155.602	655.544	368.660	-396.087	711.516	256.203	-404.734	645.147	246.425	-402.140	406.256	874.975	-161.336	421.557	864.741	-342.071	478.839	1065.153	19.340	338.229	1079.203	-481.448	457.003	1038.507	-60.782	340.703	1060.624	-402.736	658.718	913.621	-15.028	324.343	835.308	-487.126	611.311	874.314	16.575	255.742	848.961	-491.423
51	0.50000	311.800	449.432	-117.385	313.536	325.006	-147.190	170.925	88.757	-202.295	120.150	58.364	-260.324	274.815	25.185	-172.097	316.159	41.338	-212.565	634.008	468.625	-394.405	708.133	396.570	-345.258	747.478	97.025	-364.609	715.557	44.279	-317.721	881.495	93.047	-366.719	901.619	133.228	-316.021	276.928	224.782	-175.275	257.916	332.125	-97.185	204.905	239.022	-133.653	657.307	397.142	-417.829	692.706	281.108	-427.323	479.826	725.797	-93.069	458.765	616.622	-102.391	406.361	598.831	-64.873	374.802	736.585	-47.349	355.536	623.971	-58.961	560.342	752.907	-409.538	630.885	636.151	-401.093	466.061	702.199	-444.086	539.206	581.931	-430.580	515.995	897.082	-116.441	336.497	944.534	-198.141	537.714	903.500	-356.556	343.563	938.444	-315.032	368.960	1396.872	-228.059	429.412	1360.715	-80.601	423.838	1372.569	-390.375	497.885	1344.940	-215.261	498.388	1344.162	-259.026	472.465	1242.336	-15.362	446.000	1029.369	-45.895	475.424	1049.520	20.902	584.422	982.742	27.065	669.636	923.518	17.880	648.990	896.056	35.795	411.424	1223.635	-458.822	320.829	1050.644	-384.474	316.222	1061.582	-458.152	326.046	970.351	-498.075	313.261	838.575	-505.844	282.726	846.259	-514.062	428.080	826.878	-149.410	449.788	825.506	-337.526	445.273	839.649	-151.104	454.868	831.381	-309.778	439.616	1285.815	-235.230	451.268	1281.314	-78.503	483.902	1040.604	-15.837	651.618	882.308	5.914	438.896	1290.717	-392.476	341.529	1030.018	-435.777	271.364	808.119	-478.505	453.321	852.496	-245.685	446.247	849.142	-140.617	306.830	424.698	-178.206	192.833	73.979	-242.164	465.566	856.272	-350.286	619.448	478.105	-328.480	749.011	91.762	-316.831	903.507	82.456	-304.624	895.302	81.493	-305.574	732.052	49.028	-311.171	327.760	11.560	-204.227	320.331	15.346	-205.274	166.183	47.818	-260.324	373.734	1341.764	-236.999	449.870	1318.685	-104.614	449.443	1330.073	-377.720	491.455	935.747	-100.106	514.921	914.694	-393.647	337.140	952.243	-206.469	346.731	942.516	-321.609	336.742	447.826	-134.304	632.504	470.947	-388.579	341.053	460.973	-247.144	641.693	481.295	-274.178	176.619	67.923	-189.932	737.014	75.967	-370.309	206.607	73.189	-266.598	758.510	89.902	-294.555	112.446	54.221	-246.904	695.387	22.464	-322.013	306.837	16.301	-213.889	877.667	86.556	-334.191	256.554	14.939	-174.162	836.446	69.446	-382.342	469.887	685.559	-95.526	413.093	592.191	-92.593	363.870	718.558	-68.109	580.461	749.857	-418.220	595.291	635.294	-424.881	473.654	701.265	-433.945	285.177	335.264	-145.962	266.380	212.999	-150.273	208.175	242.523	-151.315	666.606	353.637	-389.640	725.964	242.888	-397.651	660.069	231.047	-395.367	414.582	859.366	-157.360	430.436	849.209	-337.811	487.042	1049.603	23.735	342.972	1063.410	-475.809	465.405	1022.705	-56.602	346.087	1044.870	-397.341	668.779	900.167	-11.023	324.819	819.206	-481.372	621.923	860.289	20.654	256.350	834.037	-484.500	443.498	1298.896	-238.821	455.150	1294.395	-82.094	487.784	1053.684	-19.428	655.500	895.388	2.323	442.778	1303.798	-396.067	345.411	1043.098	-439.368	275.246	821.200	-482.096	457.203	865.577	-249.276	450.129	862.222	-144.208	310.712	437.778	-181.797	196.715	87.059	-245.756	469.448	869.353	-353.877	623.330	491.185	-332.071	752.893	104.842	-320.422	907.389	95.537	-308.215	899.184	94.574	-309.166	735.934	62.108	-314.762	331.642	24.640	-207.818	324.214	28.427	-208.865	170.065	60.899	-263.915	377.616	1354.845	-240.590	453.752	1331.766	-108.205	453.325	1343.154	-381.311	495.337	948.827	-103.697	518.803	927.775	-397.238	341.022	965.324	-210.060	350.613	955.597	-325.200	340.624	460.907	-137.895	636.386	484.028	-392.170	344.935	474.053	-250.735	645.575	494.376	-277.769	180.502	81.003	-193.523	740.896	89.048	-373.900	210.489	86.269	-270.189	762.392	102.982	-298.146	116.328	67.301	-250.495	699.269	35.544	-325.604	310.719	29.381	-217.480	881.549	99.637	-337.782	260.436	28.019	-177.754	840.328	82.526	-385.933	473.770	698.640	-99.117	416.975	605.272	-96.184	367.752	731.638	-71.700	584.343	762.938	-421.811	599.173	648.375	-428.472	477.536	714.346	-437.536	289.059	348.345	-149.553	270.262	226.080	-153.864	212.057	255.604	-154.906	670.488	366.718	-393.231	729.846	255.968	-401.242	663.951	244.128	-398.958	418.464	872.447	-160.951	434.318	862.290	-341.402	490.924	1062.683	20.144	346.854	1076.491	-479.400	469.287	1035.786	-60.193	349.970	1057.951	-400.932	672.661	913.248	-14.614	328.701	832.287	-484.964	625.805	873.369	17.063	260.232	847.118	-488.091
52	0.51000	319.222	450.246	-117.249	318.748	325.473	-146.729	171.846	91.670	-201.798	120.844	61.772	-259.831	274.983	26.184	-171.757	316.393	41.961	-212.266	643.903	466.383	-394.114	719.700	396.261	-344.773	765.666	97.190	-359.929	735.665	43.926	-311.931	900.487	96.412	-362.901	919.367	137.638	-312.869	280.360	225.924	-174.659	263.089	333.842	-97.054	208.344	241.739	-133.565	668.264	394.614	-416.851	706.242	279.126	-424.848	490.499	724.737	-92.411	468.341	615.772	-101.345	415.326	598.578	-64.188	385.157	736.677	-47.108	364.299	624.059	-58.630	574.508	751.838	-408.631	643.299	634.017	-399.733	479.993	702.582	-444.517	551.215	581.161	-430.437	528.321	895.913	-115.490	349.400	943.230	-198.970	551.675	902.973	-355.742	357.260	937.290	-315.760	381.743	1395.950	-228.002	442.366	1359.603	-80.492	436.698	1371.398	-390.372	510.733	1343.865	-215.185	511.216	1343.064	-258.958	485.655	1241.224	-15.507	459.492	1028.121	-45.656	489.019	1048.492	20.967	598.331	982.258	26.782	683.774	923.547	17.101	663.403	895.941	35.234	423.581	1222.476	-458.688	331.956	1050.122	-383.951	327.282	1061.078	-457.606	336.122	969.894	-497.559	321.350	838.098	-505.045	291.448	846.169	-513.412	440.735	825.639	-149.585	463.953	824.680	-337.522	457.888	838.522	-150.743	468.579	830.445	-309.562	452.250	1284.734	-235.162	463.879	1280.465	-78.616	495.740	1040.456	-16.375	665.822	881.286	5.276	451.473	1289.458	-392.219	350.798	1027.098	-435.578	281.242	807.126	-478.592	465.883	850.587	-245.076	458.747	847.104	-139.779	313.151	423.464	-178.379	194.265	76.307	-241.801	478.198	854.529	-349.892	628.963	476.548	-327.362	767.919	91.992	-313.553	923.816	84.868	-301.706	915.525	83.731	-302.653	751.600	49.631	-308.009	326.864	12.367	-204.349	319.643	16.220	-205.419	167.533	50.714	-259.837	386.437	1339.948	-235.870	462.014	1317.255	-103.770	462.124	1328.596	-376.525	504.068	933.396	-99.386	528.167	912.774	-392.654	350.665	950.979	-206.161	360.393	941.404	-320.873	343.330	447.327	-133.568	645.027	468.728	-385.748	347.701	460.061	-245.905	653.019	479.097	-272.099	177.703	69.836	-188.992	757.638	76.605	-365.989	207.419	74.840	-265.553	778.172	91.115	-290.212	113.047	57.266	-245.549	716.281	22.176	-318.151	307.365	16.767	-213.432	898.071	89.287	-328.128	257.120	16.030	-173.267	857.620	71.454	-377.105	479.545	683.291	-95.359	421.518	590.542	-92.337	374.508	717.912	-68.013	593.655	748.103	-415.791	608.270	633.390	-422.311	487.384	699.714	-432.573	290.088	335.706	-144.919	269.411	213.531	-149.434	211.942	244.152	-150.438	681.056	352.553	-386.728	742.885	243.175	-394.060	677.466	229.838	-392.139	426.967	857.773	-156.864	443.330	847.853	-337.110	499.035	1048.121	24.470	352.268	1061.592	-473.815	477.625	1021.008	-56.102	355.883	1043.122	-395.576	682.272	900.367	-10.549	330.477	817.139	-479.292	635.813	860.024	21.161	262.141	832.976	-481.369	456.132	1297.815	-238.753	467.761	1293.546	-82.207	499.622	1053.537	-19.966	669.704	894.367	1.684	455.355	1302.539	-395.810	354.680	1040.179	-439.169	285.124	820.206	-482.183	469.765	863.668	-248.667	462.630	860.185	-143.370	317.033	436.545	-181.970	198.147	89.388	-245.392	482.080	867.610	-353.483	632.845	489.629	-330.953	771.801	105.073	-317.144	927.698	97.949	-305.297	919.407	96.812	-306.244	755.482	62.712	-311.600	330.746	25.447	-207.940	323.525	29.300	-209.010	171.415	63.795	-263.428	390.319	1353.029	-239.461	465.897	1330.335	-107.361	466.007	1341.677	-380.117	507.950	946.476	-102.977	532.049	925.855	-396.245	354.547	964.060	-209.752	364.275	954.485	-324.464	347.213	460.408	-137.159	648.909	481.809	-389.339	351.583	473.142	-249.496	656.901	492.178	-275.690	181.585	82.917	-192.583	761.520	89.686	-369.580	211.301	87.921	-269.144	782.054	104.196	-293.803	116.929	70.347	-249.140	720.163	35.256	-321.742	311.247	29.848	-217.023	901.953	102.368	-331.719	261.002	29.111	-176.858	861.502	84.535	-380.696	483.427	696.371	-98.950	425.400	603.622	-95.928	378.390	730.993	-71.604	597.537	761.184	-419.382	612.152	646.470	-425.902	491.267	712.795	-436.164	293.970	348.787	-148.510	273.293	226.612	-153.025	215.824	257.233	-154.030	684.938	365.634	-390.319	746.767	256.256	-397.651	681.348	242.918	-395.730	430.849	870.853	-160.455	447.212	860.933	-340.701	502.917	1061.202	20.879	356.150	1074.673	-477.406	481.508	1034.088	-59.693	359.765	1056.203	-399.167	686.154	913.447	-14.140	334.359	830.220	-482.883	639.695	873.104	17.570	266.023	846.057	-484.960
53	0.52000	326.972	451.788	-117.145	324.333	326.741	-146.297	172.955	95.475	-201.286	121.704	66.176	-259.293	275.210	27.846	-171.390	316.706	43.152	-211.945	654.257	465.098	-393.474	731.168	396.081	-344.067	780.922	97.260	-355.463	752.395	43.794	-306.363	916.325	98.569	-359.392	934.456	140.661	-309.994	284.068	227.870	-174.077	268.581	336.369	-96.971	212.017	245.357	-133.586	679.074	392.665	-415.608	718.653	277.482	-422.274	501.348	724.384	-91.751	478.129	615.617	-100.334	424.472	599.006	-63.638	395.722	737.460	-47.122	373.243	624.897	-58.588	588.851	751.731	-407.659	656.159	633.051	-398.202	494.280	703.692	-444.899	563.880	581.329	-430.101	540.895	895.358	-114.521	362.616	942.626	-199.753	565.801	903.221	-354.926	371.179	936.965	-316.416	394.557	1395.675	-228.042	455.337	1359.246	-80.450	449.597	1370.978	-390.420	523.652	1343.564	-215.161	524.082	1342.730	-258.937	498.768	1240.852	-15.700	472.760	1027.647	-45.583	502.416	1048.178	20.892	611.889	982.237	26.410	697.410	923.798	16.381	677.220	896.117	34.649	435.879	1222.077	-458.619	343.459	1050.227	-383.463	338.618	1061.265	-457.102	346.592	970.116	-497.107	330.171	838.312	-504.345	300.830	846.693	-512.806	453.624	825.063	-149.798	478.300	824.647	-337.552	470.772	838.001	-150.374	482.444	830.287	-309.362	464.757	1284.526	-235.194	476.189	1280.562	-78.927	507.077	1041.149	-17.176	679.495	880.565	4.544	464.075	1288.993	-391.959	361.134	1025.719	-435.426	292.744	807.082	-478.926	478.701	849.890	-244.500	471.677	846.347	-139.042	320.040	423.185	-178.627	195.856	79.392	-241.324	490.880	853.938	-349.478	639.313	475.763	-326.006	783.479	92.131	-310.649	940.926	86.675	-299.336	932.556	85.433	-300.276	767.760	50.260	-305.105	325.711	14.030	-204.557	318.650	17.924	-205.668	168.760	54.379	-259.217	399.092	1339.347	-234.888	474.158	1317.157	-103.034	474.765	1328.275	-375.359	516.969	932.075	-98.593	541.620	912.245	-391.655	364.404	950.820	-205.679	374.246	941.506	-320.009	350.498	447.848	-132.867	657.906	467.860	-382.966	354.860	460.209	-244.683	664.681	478.179	-270.026	179.071	73.111	-187.891	775.519	77.898	-361.736	208.393	77.786	-264.415	795.166	92.820	-285.857	113.829	61.753	-243.983	733.958	23.060	-314.283	307.979	18.294	-212.969	915.807	91.351	-322.189	257.784	18.240	-172.306	875.960	73.192	-371.975	489.650	682.126	-95.161	430.438	589.973	-92.105	385.516	718.288	-67.888	607.106	747.653	-413.395	621.518	632.801	-419.829	501.369	699.465	-431.263	295.483	337.174	-143.839	272.816	215.212	-148.545	216.123	247.016	-149.462	695.056	352.471	-383.839	758.438	244.065	-390.477	693.465	229.824	-388.970	439.606	857.282	-156.357	456.435	847.778	-336.468	510.966	1047.791	25.029	362.351	1060.850	-471.995	489.822	1020.507	-55.791	366.334	1042.461	-393.968	695.351	901.268	-10.133	337.647	816.196	-477.425	649.137	860.554	21.584	269.437	832.834	-478.602	468.639	1297.606	-238.785	480.071	1293.643	-82.518	510.960	1054.229	-20.767	683.377	893.645	0.953	467.958	1302.073	-395.550	365.016	1038.800	-439.017	296.626	820.163	-482.517	482.583	862.971	-248.091	475.559	859.427	-142.633	323.922	436.266	-182.218	199.738	92.473	-244.915	494.762	867.019	-353.069	643.196	488.844	-329.597	787.361	105.212	-314.240	944.808	99.756	-302.927	936.438	98.514	-303.867	771.642	63.340	-308.696	329.594	27.111	-208.148	322.532	31.004	-209.259	172.642	67.460	-262.809	402.974	1352.428	-238.479	478.040	1330.238	-106.625	478.647	1341.356	-378.950	520.851	945.155	-102.184	545.503	925.326	-395.246	368.286	963.900	-209.270	378.128	954.586	-323.600	354.380	460.929	-136.458	661.789	480.941	-386.558	358.742	473.290	-248.274	668.563	491.260	-273.617	182.953	86.191	-191.482	779.401	90.979	-365.327	212.275	90.867	-268.006	799.048	105.901	-289.448	117.711	74.834	-247.574	737.840	36.141	-317.874	311.861	31.374	-216.560	919.689	104.432	-325.780	261.666	31.321	-175.897	879.842	86.272	-375.566	493.532	695.207	-98.752	434.320	603.053	-95.696	389.398	731.368	-71.480	610.988	760.734	-416.986	625.400	645.882	-423.420	505.251	712.545	-434.854	299.365	350.255	-147.430	276.699	228.292	-152.136	220.005	260.097	-153.053	698.938	365.552	-387.430	762.320	257.146	-394.068	697.347	242.905	-392.561	443.488	870.363	-159.948	460.318	860.859	-340.059	514.848	1060.872	21.438	366.234	1073.931	-475.586	493.704	1033.588	-59.382	370.217	1055.542	-397.559	699.233	914.349	-13.724	341.529	829.277	-481.016	653.019	873.635	17.992	273.319	845.915	-482.193
